<?xml version="1.0" encoding="utf-8"?>
<!-- Generator: Adobe Illustrator 24.0.0, SVG Export Plug-In . SVG Version: 6.00 Build 0)  -->
<svg version="1.1" id="Layer_1" xmlns="http://www.w3.org/2000/svg" xmlns:xlink="http://www.w3.org/1999/xlink" x="0px" y="0px"
	 viewBox="0 0 500 210" style="enable-background:new 0 0 500 210;" xml:space="preserve">
<style type="text/css">
	.st0{fill:#292561;}
	.st1{font-family:'TimesNewRomanPS-BoldMT';}
	.st2{font-size:146.1133px;}
	.st3{font-size:141.2284px;}
	.st4{fill:#292562;}
</style>
<g>
	<g>
		<g>
			<g>
				<g>
					<path class="st0" d="M196.9,139.1c0.2-0.7,0.2-1.4,0.2-2.2c0-0.8-0.1-1.5-0.2-2.3c-0.2-1.5-0.8-3.2-1.3-4.6
						c-0.2-0.7-0.6-1.4-0.8-2.1c-0.3-0.7-0.6-1.3-0.9-1.9c-0.5-1.2-0.9-2-1.1-2.7c-0.1-0.5-0.2-1.1-0.3-1.5c-0.1-0.5-0.1-0.9,0-1.3
						c0.1-0.9,0.4-1.6,0.7-2.3c0.7-1.5,1.9-2.7,3.2-3.8c1.3-1.2,2.6-2.2,3.8-3.2c0.6-0.5,1.1-1,1.5-1.5c0.4-0.5,0.6-1,0.7-1.5
						c0.4,1.9,3.2,3.9,5.5,6.8c1.1,1.5,2,3.1,2.3,5c0.2,0.9,0.2,1.9-0.1,2.9c-0.2,1.1-0.6,2-1.2,3.2c-0.4,0.6-1.2,1.5-2.1,2.5
						s-2,2-3.3,3.2c-0.6,0.6-1.2,1.2-1.8,1.8c-0.3,0.3-0.6,0.6-0.9,0.9c-0.3,0.3-0.6,0.6-0.9,0.9c-0.6,0.6-1.2,1.2-1.6,1.9
						C197.8,137.7,197.3,138.4,196.9,139.1z"/>
				</g>
			</g>
			<g>
				<g>
					<path class="st0" d="M176.9,171.1c0.8-1.1,1.3-2.6,1.7-4.1c0.2-0.8,0.4-1.5,0.4-2.3s0.1-1.6,0.2-2.4c0.1-1.5,0.1-3-0.1-4.3
						c-0.1-1.2-0.1-2.3,0-3c0.1-0.2,0.1-0.5,0.1-0.8c0.1-0.2,0.1-0.5,0.2-0.7c0.1-0.5,0.3-0.9,0.5-1.2c0.4-0.8,0.9-1.3,1.5-1.9
						c1.2-1.1,2.8-1.8,4.4-2.3c1.6-0.6,3.3-1,4.7-1.5c0.4-0.1,0.7-0.2,1.1-0.4c0.3-0.1,0.6-0.3,0.9-0.4c0.5-0.3,0.9-0.6,1.2-1.1
						c-0.1,0.5-0.1,1,0.1,1.6c0.1,0.3,0.2,0.6,0.2,0.9c0.1,0.4,0.2,0.7,0.4,1.1c0.5,1.4,1.2,3.1,1.7,4.8c0.2,0.9,0.4,1.8,0.5,2.7
						c0.1,0.9,0,1.9-0.2,2.8c-0.2,0.9-0.6,1.8-1.2,2.6c-0.6,0.9-1.3,1.7-2.3,2.4c-0.6,0.4-1.6,0.9-2.9,1.4c-0.6,0.2-1.3,0.5-2,0.8
						c-0.7,0.2-1.5,0.6-2.3,0.8c-1.5,0.6-3.2,1.2-4.7,1.9C179.7,169.4,178.3,170.2,176.9,171.1z"/>
				</g>
			</g>
			<g>
				<g>
					<path class="st0" d="M146.3,193.1c0.6-0.4,1.2-0.9,1.7-1.3c0.5-0.6,1.1-1.2,1.5-1.8c0.9-1.3,1.7-2.7,2.3-4.1
						c0.6-1.5,1.2-2.8,1.6-4c0.4-1.2,0.8-2.2,1.1-2.7c0.2-0.5,0.6-0.9,0.9-1.2c0.3-0.4,0.6-0.7,0.9-1c0.6-0.6,1.3-0.9,2.2-1.2
						c0.4-0.1,0.8-0.2,1.2-0.3c0.4-0.1,0.8-0.1,1.2-0.2c0.8-0.1,1.7-0.1,2.6,0.1c0.9,0.1,1.7,0.1,2.6,0.2c0.9,0.1,1.6,0.2,2.4,0.2
						c0.8,0.1,1.5,0.1,2.1-0.1c0.6-0.1,1.1-0.2,1.5-0.5c-0.2,0.4-0.4,0.9-0.6,1.5c-0.1,0.6-0.2,1.3-0.2,2c-0.1,1.5,0,3.3-0.2,5.1
						c-0.2,1.8-0.8,3.6-1.9,5.2c-0.6,0.8-1.2,1.5-2.1,2c-0.9,0.6-1.9,1.1-3.1,1.3c-1.5,0.4-4.4,0.2-7.8,0.1
						c-0.8-0.1-1.7-0.1-2.5-0.1c-0.9-0.1-1.7-0.1-2.6,0c-0.9,0.1-1.7,0.1-2.5,0.2C147.9,192.8,147.1,192.9,146.3,193.1z"/>
				</g>
			</g>
			<g>
				<g>
					<path class="st0" d="M109.6,201.6c0.7-0.1,1.3-0.3,2-0.6c0.7-0.3,1.3-0.7,2-1.1c0.7-0.4,1.3-0.9,2-1.3s1.2-1.1,1.8-1.6
						c1.2-1.1,2.2-2.1,3-3c0.9-0.9,1.5-1.7,2-2.1c0.4-0.4,0.9-0.6,1.3-0.8c0.4-0.2,0.8-0.4,1.2-0.6c0.8-0.2,1.6-0.4,2.5-0.2
						c0.8,0.1,1.6,0.2,2.4,0.5c0.8,0.2,1.6,0.6,2.3,1.1c1.6,0.8,3,1.7,4.4,2.3c1.4,0.6,2.6,1.1,3.6,0.9c-0.8,0.5-1.4,1.6-2,3
						c-0.3,0.7-0.6,1.5-1,2.3c-0.4,0.8-0.7,1.6-1.2,2.4c-0.9,1.5-2.1,3.1-3.7,4.1c-0.8,0.5-1.7,0.9-2.7,1.1c-1.1,0.2-2.2,0.2-3.4,0
						c-1.5-0.2-4.2-1.5-7.2-2.9c-0.8-0.4-1.5-0.7-2.3-1c-0.8-0.4-1.6-0.7-2.3-1c-0.8-0.3-1.6-0.6-2.4-0.8c-0.4-0.1-0.8-0.2-1.2-0.3
						C110.4,201.8,109.9,201.7,109.6,201.6z"/>
				</g>
			</g>
			<g>
				<g>
					<path class="st0" d="M72.4,195.5c0.7,0.2,1.4,0.2,2.2,0.2c0.8,0,1.5-0.1,2.3-0.2c1.5-0.2,3.2-0.8,4.6-1.3
						c0.7-0.2,1.4-0.6,2.1-0.8c0.7-0.3,1.3-0.6,1.9-0.9c1.2-0.5,2-0.9,2.7-1.1c0.5-0.1,1.1-0.2,1.5-0.3s0.9-0.1,1.3,0
						c0.9,0.1,1.6,0.4,2.3,0.7c1.5,0.7,2.7,1.9,3.8,3.2c1.2,1.3,2.2,2.6,3.2,3.8c0.5,0.6,1,1.1,1.5,1.5c0.5,0.4,1,0.6,1.5,0.7
						c-1.9,0.4-3.9,3.2-6.8,5.5c-1.5,1.1-3.1,2-5,2.3c-0.9,0.2-1.9,0.2-2.9-0.1c-1.1-0.2-2-0.6-3.2-1.2c-0.6-0.4-1.5-1.2-2.5-2.1
						c-0.9-0.9-2-2-3.2-3.3c-0.6-0.6-1.2-1.2-1.8-1.8c-0.3-0.3-0.6-0.6-0.9-0.9c-0.3-0.3-0.6-0.6-0.9-0.9c-0.6-0.6-1.2-1.2-1.9-1.6
						C73.7,196.4,73,196,72.4,195.5z"/>
				</g>
			</g>
			<g>
				<g>
					<path class="st0" d="M40.3,175.6c1.1,0.8,2.6,1.3,4.1,1.7c0.8,0.2,1.5,0.4,2.3,0.4c0.8,0.1,1.6,0.1,2.4,0.2
						c1.5,0.1,3,0.1,4.3-0.1c1.2-0.1,2.3-0.1,3,0c0.2,0.1,0.5,0.1,0.8,0.1c0.2,0.1,0.5,0.1,0.7,0.2c0.5,0.1,0.9,0.3,1.2,0.5
						c0.8,0.4,1.3,0.9,1.9,1.5c1.1,1.2,1.8,2.8,2.3,4.4c0.6,1.6,1,3.3,1.5,4.7c0.1,0.4,0.2,0.7,0.4,1.1c0.1,0.3,0.3,0.6,0.4,0.9
						c0.3,0.5,0.6,0.9,1.1,1.2c-0.5-0.1-1-0.1-1.6,0.1c-0.3,0.1-0.6,0.2-0.9,0.2c-0.4,0.1-0.7,0.2-1.1,0.4c-1.4,0.5-3.1,1.2-4.8,1.7
						c-0.9,0.2-1.8,0.4-2.7,0.5c-0.9,0.1-1.9,0-2.8-0.2c-0.9-0.2-1.8-0.6-2.6-1.2c-0.9-0.6-1.7-1.3-2.4-2.3
						c-0.4-0.6-0.9-1.6-1.4-2.9c-0.2-0.6-0.5-1.3-0.8-2c-0.2-0.7-0.6-1.5-0.8-2.3c-0.6-1.5-1.2-3.2-1.9-4.7
						C42.1,178.3,41.2,176.9,40.3,175.6z"/>
				</g>
			</g>
			<g>
				<g>
					<path class="st0" d="M18.3,144.9c0.4,0.6,0.9,1.2,1.3,1.7c0.6,0.5,1.2,1.1,1.8,1.5c1.3,0.9,2.7,1.7,4.1,2.3
						c1.5,0.6,2.8,1.2,4,1.6c1.2,0.4,2.2,0.8,2.7,1.1c0.5,0.2,0.9,0.6,1.2,0.9c0.4,0.3,0.7,0.6,1,0.9c0.6,0.6,0.9,1.3,1.2,2.2
						c0.1,0.4,0.2,0.8,0.3,1.2c0.1,0.4,0.1,0.8,0.2,1.2c0.1,0.8,0.1,1.7-0.1,2.6c-0.1,0.9-0.1,1.7-0.2,2.6c-0.1,0.9-0.2,1.6-0.2,2.4
						c-0.1,0.8-0.1,1.5,0.1,2.1c0.1,0.6,0.2,1.1,0.5,1.5c-0.4-0.2-0.9-0.4-1.5-0.6c-0.6-0.1-1.3-0.2-2-0.2c-1.5-0.1-3.3,0-5.1-0.2
						s-3.6-0.8-5.2-1.9c-0.8-0.6-1.5-1.2-2-2.1c-0.5-0.9-1.1-1.9-1.3-3.1c-0.4-1.5-0.2-4.4-0.1-7.8c0.1-0.8,0.1-1.7,0.1-2.5
						c0.1-0.9,0.1-1.7,0-2.6s-0.1-1.7-0.2-2.5C18.6,146.5,18.5,145.7,18.3,144.9z"/>
				</g>
			</g>
			<g>
				<g>
					<path class="st0" d="M9.7,108.2c0.1,0.7,0.3,1.3,0.6,2c0.3,0.7,0.7,1.3,1.1,2c0.4,0.7,0.9,1.3,1.3,2c0.5,0.6,1.1,1.2,1.6,1.8
						c1.1,1.2,2.1,2.2,3,3c0.9,0.9,1.7,1.5,2.1,2c0.4,0.4,0.6,0.9,0.8,1.3c0.2,0.4,0.4,0.8,0.6,1.2c0.2,0.8,0.4,1.6,0.2,2.5
						c-0.1,0.8-0.2,1.6-0.5,2.4c-0.2,0.8-0.6,1.6-1.1,2.3c-0.8,1.6-1.7,3-2.3,4.4c-0.6,1.3-1.1,2.6-0.9,3.6c-0.5-0.8-1.6-1.4-3-2
						c-0.7-0.3-1.5-0.6-2.3-1c-0.8-0.4-1.6-0.7-2.4-1.2c-1.5-0.9-3.1-2.1-4.1-3.7c-0.5-0.8-0.9-1.7-1.1-2.7c-0.2-1.1-0.2-2.2,0-3.4
						c0.2-1.5,1.5-4.2,2.9-7.2c0.4-0.8,0.7-1.5,1-2.3c0.4-0.8,0.7-1.6,1-2.3c0.3-0.8,0.6-1.6,0.8-2.4c0.1-0.4,0.2-0.8,0.3-1.2
						C9.6,109,9.7,108.6,9.7,108.2z"/>
				</g>
			</g>
			<g>
				<g>
					<path class="st0" d="M15.9,71c-0.2,0.7-0.2,1.4-0.2,2.2c0,0.8,0.1,1.5,0.2,2.3c0.2,1.5,0.8,3.2,1.3,4.6
						c0.2,0.7,0.6,1.4,0.8,2.1c0.3,0.7,0.6,1.3,0.9,1.9c0.5,1.2,0.9,2,1.1,2.7c0.1,0.5,0.2,1.1,0.3,1.5s0.1,0.9,0,1.3
						c-0.1,0.9-0.4,1.6-0.7,2.3c-0.7,1.5-1.9,2.7-3.2,3.8c-1.3,1.2-2.6,2.2-3.8,3.2c-0.6,0.5-1.1,1-1.5,1.5c-0.4,0.5-0.6,1-0.7,1.5
						C10.1,100,7.3,98,5,95c-1.1-1.5-2-3.1-2.3-5c-0.2-0.9-0.2-1.9,0.1-2.9c0.2-1.1,0.6-2,1.2-3.2c0.4-0.6,1.2-1.5,2.1-2.5
						s2-2,3.3-3.2c0.6-0.6,1.2-1.2,1.8-1.8c0.3-0.3,0.6-0.6,0.9-0.9c0.3-0.3,0.6-0.6,0.9-0.9c0.6-0.6,1.2-1.2,1.6-1.9
						C15,72.3,15.4,71.6,15.9,71z"/>
				</g>
			</g>
			<g>
				<g>
					<path class="st0" d="M35.8,39c-0.8,1.1-1.3,2.6-1.7,4.1c-0.2,0.8-0.4,1.5-0.4,2.3c-0.1,0.8-0.1,1.6-0.2,2.4
						c-0.1,1.5-0.1,3,0.1,4.3c0.1,1.2,0.1,2.3,0,3c-0.1,0.2-0.1,0.5-0.1,0.8c-0.1,0.2-0.1,0.5-0.2,0.7c-0.1,0.5-0.3,0.9-0.5,1.2
						c-0.4,0.8-0.9,1.3-1.5,1.9c-1.2,1.1-2.8,1.8-4.4,2.3c-1.6,0.6-3.3,1-4.7,1.5c-0.4,0.1-0.7,0.2-1.1,0.4
						c-0.3,0.1-0.6,0.3-0.9,0.4c-0.5,0.3-0.9,0.6-1.2,1.1c0.1-0.5,0.1-1-0.1-1.6c-0.1-0.3-0.2-0.6-0.2-0.9c-0.1-0.4-0.2-0.7-0.4-1.1
						c-0.5-1.4-1.2-3.1-1.7-4.8c-0.2-0.9-0.4-1.8-0.5-2.7c-0.1-0.9,0-1.9,0.2-2.8s0.6-1.8,1.2-2.6c0.6-0.9,1.3-1.7,2.3-2.4
						c0.6-0.4,1.6-0.9,2.9-1.4c0.6-0.2,1.3-0.5,2-0.8c0.7-0.2,1.5-0.6,2.3-0.8c1.5-0.6,3.2-1.2,4.7-1.9C33.1,40.7,34.5,39.8,35.8,39
						z"/>
				</g>
			</g>
			<g>
				<g>
					<path class="st0" d="M66.5,16.9c-0.6,0.4-1.2,0.9-1.7,1.3c-0.5,0.6-1.1,1.2-1.5,1.8c-0.9,1.3-1.7,2.7-2.3,4.1
						c-0.6,1.5-1.2,2.8-1.6,4c-0.4,1.2-0.8,2.2-1.1,2.7c-0.2,0.5-0.6,0.9-0.9,1.2c-0.3,0.4-0.6,0.7-0.9,1c-0.6,0.6-1.3,0.9-2.2,1.2
						c-0.4,0.1-0.8,0.2-1.2,0.3c-0.4,0.1-0.8,0.1-1.2,0.2c-0.8,0.1-1.7,0.1-2.6-0.1c-0.9-0.1-1.7-0.1-2.6-0.2
						c-0.9-0.1-1.6-0.2-2.4-0.2c-0.8-0.1-1.5-0.1-2.1,0.1c-0.6,0.1-1.1,0.2-1.5,0.5c0.2-0.4,0.4-0.9,0.6-1.5c0.1-0.6,0.2-1.3,0.2-2
						c0.1-1.5,0-3.3,0.2-5.1c0.2-1.8,0.8-3.6,1.9-5.2c0.6-0.8,1.2-1.5,2.1-2c0.9-0.5,1.9-1.1,3.1-1.3c1.5-0.4,4.4-0.2,7.8-0.1
						c0.8,0.1,1.7,0.1,2.5,0.1c0.9,0.1,1.7,0.1,2.6,0c0.9-0.1,1.7-0.1,2.5-0.2C64.9,17.3,65.7,17.2,66.5,16.9z"/>
				</g>
			</g>
			<g>
				<g>
					<path class="st0" d="M103.2,8.3c-0.7,0.1-1.3,0.3-2,0.6c-0.7,0.3-1.3,0.7-2,1.1c-0.7,0.4-1.3,0.9-2,1.3
						c-0.6,0.5-1.2,1.1-1.8,1.6c-1.2,1.1-2.2,2.1-3,3c-0.9,0.9-1.5,1.7-2,2.1c-0.4,0.4-0.9,0.6-1.3,0.8c-0.4,0.2-0.8,0.4-1.2,0.6
						c-0.8,0.2-1.6,0.4-2.5,0.2c-0.8-0.1-1.6-0.2-2.4-0.5c-0.8-0.2-1.6-0.6-2.3-1.1c-1.6-0.8-3-1.7-4.4-2.3
						c-1.3-0.6-2.6-1.1-3.6-0.9c0.8-0.5,1.4-1.6,2-3c0.3-0.7,0.6-1.5,1-2.3c0.4-0.8,0.7-1.6,1.2-2.4c0.9-1.5,2.1-3.1,3.7-4.1
						c0.8-0.5,1.7-0.9,2.7-1.1c1.1-0.2,2.2-0.2,3.4,0c1.5,0.2,4.2,1.5,7.2,2.9c0.8,0.4,1.5,0.7,2.3,1c0.8,0.4,1.6,0.7,2.3,1
						c0.8,0.3,1.6,0.6,2.4,0.8c0.4,0.1,0.8,0.2,1.2,0.3C102.4,8.2,102.9,8.3,103.2,8.3z"/>
				</g>
			</g>
			<g>
				<g>
					<path class="st0" d="M140.4,14.5c-0.7-0.2-1.4-0.2-2.2-0.2c-0.8,0-1.5,0.1-2.3,0.2c-1.5,0.2-3.2,0.8-4.6,1.3
						c-0.7,0.2-1.4,0.6-2.1,0.8c-0.7,0.3-1.3,0.6-1.9,0.9c-1.2,0.5-2,0.9-2.7,1.1c-0.5,0.1-1.1,0.2-1.5,0.3c-0.5,0.1-0.9,0.1-1.3,0
						c-0.9-0.1-1.6-0.4-2.3-0.7c-1.5-0.7-2.7-1.9-3.8-3.2c-1.2-1.3-2.2-2.6-3.2-3.8c-0.5-0.6-1-1.1-1.5-1.5c-0.5-0.4-1-0.6-1.5-0.7
						c1.9-0.4,3.9-3.2,6.8-5.5c1.5-1.1,3.1-2,5-2.3c0.9-0.2,1.9-0.2,2.9,0.1c1.1,0.2,2,0.6,3.2,1.2c0.6,0.4,1.5,1.2,2.5,2.1
						s2,2,3.2,3.3c0.6,0.6,1.2,1.2,1.8,1.8c0.3,0.3,0.6,0.6,0.9,0.9c0.3,0.3,0.6,0.6,0.9,0.9c0.6,0.6,1.2,1.2,1.9,1.6
						C139.1,13.7,139.7,14.1,140.4,14.5z"/>
				</g>
			</g>
			<g>
				<g>
					<path class="st0" d="M172.5,34.5c-1.1-0.8-2.6-1.3-4.1-1.7c-0.8-0.2-1.5-0.4-2.3-0.4c-0.8-0.1-1.6-0.1-2.4-0.2
						c-1.5-0.1-3-0.1-4.3,0.1c-1.2,0.1-2.3,0.1-3,0c-0.2-0.1-0.5-0.1-0.8-0.1c-0.2-0.1-0.5-0.1-0.7-0.2c-0.5-0.1-0.9-0.3-1.2-0.5
						c-0.8-0.4-1.3-0.9-1.9-1.5c-1.1-1.2-1.8-2.8-2.3-4.4c-0.6-1.6-1-3.3-1.5-4.7c-0.1-0.4-0.2-0.7-0.4-1.1
						c-0.1-0.3-0.3-0.6-0.4-0.9c-0.3-0.5-0.6-0.9-1.1-1.2c0.5,0.1,1,0.1,1.6-0.1c0.3-0.1,0.6-0.2,0.9-0.2c0.4-0.1,0.7-0.2,1.1-0.4
						c1.4-0.5,3.1-1.2,4.8-1.7c0.9-0.2,1.8-0.4,2.7-0.5c0.9-0.1,1.9,0,2.8,0.2c0.9,0.2,1.8,0.6,2.6,1.2c0.9,0.6,1.7,1.3,2.4,2.3
						c0.4,0.6,0.9,1.6,1.4,2.9c0.2,0.6,0.5,1.3,0.8,2c0.2,0.7,0.6,1.5,0.8,2.3c0.6,1.5,1.2,3.2,1.9,4.7
						C170.7,31.7,171.6,33.1,172.5,34.5z"/>
				</g>
			</g>
			<g>
				<g>
					<path class="st0" d="M194.5,65.1c-0.4-0.6-0.9-1.2-1.3-1.7c-0.6-0.5-1.2-1.1-1.8-1.5c-1.3-0.9-2.7-1.7-4.1-2.3
						c-1.5-0.6-2.8-1.2-4-1.6c-1.2-0.4-2.2-0.8-2.7-1.1c-0.5-0.2-0.9-0.6-1.2-0.9c-0.4-0.3-0.7-0.6-1-0.9c-0.6-0.6-0.9-1.3-1.2-2.2
						c-0.1-0.4-0.2-0.8-0.3-1.2c-0.1-0.4-0.1-0.8-0.2-1.2c-0.1-0.8-0.1-1.7,0.1-2.6c0.1-0.9,0.1-1.7,0.2-2.6
						c0.1-0.9,0.2-1.6,0.2-2.4c0.1-0.8,0.1-1.5-0.1-2.1c-0.1-0.6-0.2-1.1-0.5-1.5c0.4,0.2,0.9,0.4,1.5,0.6c0.6,0.2,1.3,0.2,2,0.2
						c1.5,0.1,3.3,0,5.1,0.2s3.6,0.8,5.2,1.9c0.8,0.6,1.5,1.2,2,2.1c0.6,0.9,1.1,1.9,1.3,3.1c0.4,1.5,0.2,4.4,0.1,7.8
						c-0.1,0.8-0.1,1.7-0.1,2.5c-0.1,0.9-0.1,1.7,0,2.6c0.1,0.9,0.1,1.7,0.2,2.5C194.1,63.6,194.2,64.3,194.5,65.1z"/>
				</g>
			</g>
			<g>
				<g>
					<path class="st0" d="M203.1,101.9c-0.1-0.7-0.3-1.3-0.6-2c-0.3-0.7-0.7-1.3-1.1-2c-0.4-0.7-0.9-1.3-1.3-2
						c-0.5-0.6-1.1-1.2-1.6-1.8c-1.1-1.2-2.1-2.2-3-3c-0.9-0.9-1.7-1.5-2.1-2c-0.4-0.4-0.6-0.9-0.8-1.3c-0.2-0.4-0.4-0.8-0.6-1.2
						c-0.2-0.8-0.4-1.6-0.2-2.5c0.1-0.8,0.2-1.6,0.5-2.4c0.2-0.8,0.6-1.6,1.1-2.3c0.8-1.6,1.7-3,2.3-4.4c0.6-1.3,1.1-2.6,0.9-3.6
						c0.5,0.8,1.6,1.4,3,2c0.7,0.3,1.5,0.6,2.3,1s1.6,0.7,2.4,1.2c1.5,0.9,3.1,2.1,4.1,3.7c0.5,0.8,0.9,1.7,1.1,2.7
						c0.2,1.1,0.2,2.2,0,3.4c-0.2,1.5-1.5,4.2-2.9,7.2c-0.4,0.8-0.7,1.5-1,2.3c-0.4,0.8-0.7,1.6-1,2.3c-0.3,0.8-0.6,1.6-0.8,2.4
						c-0.1,0.4-0.2,0.8-0.3,1.2C203.2,101.1,203.1,101.4,203.1,101.9z"/>
				</g>
			</g>
		</g>
	</g>
</g>
<g>
	<path class="st0" d="M106.7,77c0,1.7-0.1,4.3-0.4,7.7c-0.1,1.7-0.2,3.3-0.2,5c0,1.3,0.1,63.2,0.2,67.4c0.1,4.3,0.4,7,0.8,7.9
		c0.4,1.1,1.3,2.1,2.6,3.1c1.3,1,2.8,1.5,4.3,1.6c1.8,0.1,2.6,0.5,2.6,1.2c0,0.5-0.2,0.9-0.8,0.9c-0.5,0.1-2.5,0.1-6,0.1l-15.7-0.1
		c-4.4,0-6.7-0.1-7-0.2c-0.3-0.1-0.4-0.4-0.4-0.8c0-0.6,0.7-1.1,2.2-1.3c2.5-0.6,4.3-1.5,5.3-2.6c1-1.2,1.6-3.8,1.9-7.8
		c0.2-4,0.4-67.7,0.4-72.9l-0.2-15.1l0.2-16.4c0-5.8-0.4-9.5-1.2-11.1c-0.8-1.6-2.3-2.6-4.7-3c-2.5-0.5-3.8-1-3.8-1.6
		c0-0.6,0.6-1,1.7-1l11.3,0.1l18.1-0.1c11.9,0,19.9,1.9,24,5.5c4.1,3.7,6.2,8.4,6.2,13.8c0,6.6-2.7,11.6-8.1,14.9
		c-5.4,3.3-13.4,5-24.2,5C113.2,77.3,110.1,77.2,106.7,77z M106.7,74.7c5.5,0.2,8.8,0.3,9.5,0.3c3.9,0,7.5-0.6,10.9-2
		c3.4-1.3,5.9-3.7,7.5-7.1c1.6-3.4,2.3-6.8,2.3-10.2c0-4.3-1.5-7.9-4.3-10.9c-2.9-3-8.1-4.4-15.7-4.4c-3.9,0-7.3,0.4-10.2,1.2
		c-0.1,1.3-0.1,2.2-0.1,2.6l0.2,13l-0.2,13.8C106.6,71.8,106.7,73,106.7,74.7z"/>
</g>
<text transform="matrix(0.2164 0.2492 -0.755 0.6558 59.0106 154.2351)" class="st0 st1 st2">I</text>
<text transform="matrix(-0.2395 0.2608 -0.7365 -0.6764 74.089 91.4226)" class="st0 st1 st3">I</text>
<g>
	<g>
		<path class="st4" d="M240.4,102.1c-0.3,0-0.6-0.1-0.8-0.2c-0.2-0.1-0.4-0.3-0.4-0.5c0-0.5,0.4-0.9,1.3-1.1
			c1.3-0.3,2.3-0.6,2.9-1.2c0.6-0.5,0.9-1.3,0.9-2.4V72.9c0-1.2-0.2-2-0.8-2.5c-0.5-0.5-1.4-0.9-2.8-1.2c-0.9-0.2-1.3-0.5-1.3-1.1
			c0-0.2,0.1-0.4,0.4-0.5c0.2-0.1,0.5-0.2,0.8-0.2c0.8,0,1.6,0,2.5,0.1s1.6,0.1,2.3,0.1c0.8,0.1,1.5,0.1,2.3,0.1
			c0.8,0,1.5,0,2.2-0.1c0.8-0.1,1.5-0.1,2.3-0.1c0.8-0.1,1.6-0.1,2.5-0.1c0.4,0,0.6,0.1,0.8,0.2c0.2,0.1,0.3,0.3,0.3,0.5
			c0,0.3-0.1,0.5-0.4,0.6c-0.2,0.2-0.5,0.3-1,0.4c-1.4,0.4-2.3,0.8-2.9,1.3c-0.5,0.5-0.8,1.3-0.8,2.4v23.8c0,1.1,0.3,1.9,0.9,2.3
			s1.5,0.9,2.9,1.3c0.5,0.1,0.8,0.2,1.1,0.4c0.2,0.1,0.4,0.4,0.4,0.6c0,0.2-0.1,0.4-0.3,0.5c-0.2,0.1-0.5,0.2-0.8,0.2
			c-0.8,0-1.7,0-2.5-0.1s-1.6-0.1-2.5-0.1c-0.8-0.1-1.6-0.1-2.3-0.1c-0.8,0-1.6,0-2.3,0.1c-0.8,0.1-1.6,0.1-2.5,0.1
			C242.1,102,241.2,102.1,240.4,102.1z"/>
		<path class="st4" d="M259.4,102.1c-0.4,0-0.8-0.1-1-0.2c-0.2-0.1-0.4-0.3-0.4-0.5c0-0.3,0.2-0.5,0.5-0.6s0.6-0.2,1.1-0.4
			c0.8-0.2,1.6-0.7,2.2-1.4c0.6-0.7,1-1.6,1.1-2.7c0.3-2.2,0.5-4.4,0.8-7c0.3-2.5,0.5-5.1,0.8-7.7c0.2-2.6,0.4-5,0.5-7.2
			c0-0.2,0-0.5,0-0.8s0-0.6,0-0.9c-0.1-0.5-0.1-0.9-0.3-1.3c-0.2-0.4-0.4-0.6-0.8-0.9c-0.5-0.4-1-0.6-1.5-0.8
			c-0.5-0.2-1.1-0.4-1.8-0.5c-0.4-0.1-0.7-0.2-0.9-0.4c-0.2-0.2-0.4-0.4-0.4-0.7c0-0.3,0.1-0.5,0.4-0.6s0.6-0.2,1.1-0.2
			c0.5,0,1.1,0,1.8,0.1c0.8,0.1,1.6,0.1,2.5,0.1c0.9,0.1,1.8,0.1,2.6,0.1c0.9,0.1,1.6,0.1,2.3,0.1c0.3,0,0.5,0.1,0.8,0.3
			c0.2,0.2,0.4,0.4,0.4,0.6c0.2,0.6,0.4,1.3,0.6,1.9c0.2,0.6,0.5,1.3,0.7,2l7.9,19.3c0.1,0.2,0.2,0.3,0.4,0.3s0.3-0.1,0.4-0.2
			l8.5-18.8c0.2-1,0.5-1.9,0.6-2.7c0.2-0.8,0.3-1.4,0.5-1.8c0.1-0.5,0.4-0.7,0.7-0.7h2.2c1.3-0.1,2.7-0.2,4.2-0.3
			c1.5-0.1,2.6-0.2,3.4-0.2c0.3,0,0.5,0.1,0.8,0.1c0.3,0.1,0.4,0.3,0.4,0.5c0,0.3-0.1,0.5-0.3,0.6c-0.2,0.1-0.5,0.3-0.9,0.5
			c-0.3,0.1-0.6,0.2-1,0.4c-0.4,0.2-0.7,0.3-1,0.5c-0.8,0.3-1.3,0.7-1.6,1.2c-0.4,0.5-0.5,1.2-0.5,2.1c0.1,2.5,0.1,4.7,0.2,6.7
			c0.1,2,0.2,3.9,0.3,5.5c0.1,1.8,0.2,3.5,0.4,5.3c0.1,1.8,0.3,3.8,0.4,6c0.1,1,0.5,1.8,1.1,2.3c0.7,0.6,1.6,1,2.7,1.3
			c0.4,0.1,0.8,0.2,1.1,0.4c0.3,0.1,0.4,0.4,0.4,0.6c0,0.2-0.1,0.4-0.4,0.5c-0.2,0.1-0.5,0.2-0.9,0.2c-0.8,0-1.6,0-2.5-0.1
			c-0.9-0.1-1.8-0.1-2.6-0.1c-0.8-0.1-1.6-0.1-2.3-0.1c-0.7,0-1.4,0-2.2,0.1c-0.8,0.1-1.5,0.1-2.3,0.1c-0.8,0.1-1.6,0.1-2.4,0.1
			c-0.4,0-0.6-0.1-0.9-0.2c-0.3-0.1-0.4-0.3-0.4-0.5c0-0.3,0.1-0.5,0.4-0.7c0.2-0.2,0.6-0.3,1.1-0.4c1.2-0.2,2-0.6,2.5-1.1
			c0.5-0.5,0.7-1.3,0.6-2.5c-0.1-2.3-0.1-4.4-0.2-6.5c-0.1-2.1-0.1-4.2-0.2-6.3c-0.1-2-0.2-4.1-0.3-6.3c-0.1-0.3-0.1-0.4-0.2-0.4
			s-0.2,0.2-0.4,0.5l-10.7,24.2c-0.1,0.4-0.4,0.5-0.7,0.5c-0.3-0.1-0.5-0.2-0.6-0.5c-1.6-4.1-3.3-8.1-5.1-12.1
			c-1.8-4-3.5-8-5.3-12.1c-0.1-0.3-0.2-0.4-0.5-0.3c-0.2,0.1-0.3,0.3-0.4,0.6c-0.2,2-0.4,4-0.5,6.1c-0.1,2.1-0.2,4.1-0.2,6.3
			c-0.1,2-0.1,4.1-0.1,6.1c0,0.9,0.3,1.8,0.9,2.4c0.6,0.6,1.6,1.2,2.8,1.5c0.4,0.1,0.8,0.2,1.1,0.4c0.3,0.2,0.5,0.4,0.5,0.6
			c0,0.2-0.1,0.4-0.4,0.5c-0.3,0.1-0.6,0.2-0.9,0.2c-0.9,0-1.7,0-2.2-0.1c-0.5-0.1-0.9-0.1-1.3-0.1c-0.4-0.1-1-0.1-1.7-0.1
			c-0.8,0-1.4,0-2.1,0.1c-0.6,0.1-1.2,0.1-1.8,0.1C260.3,102,259.8,102.1,259.4,102.1z"/>
		<path class="st4" d="M307.2,102.1c-0.3,0-0.6-0.1-0.8-0.2c-0.2-0.1-0.4-0.3-0.4-0.5c0-0.5,0.5-0.9,1.3-1.1
			c1.3-0.3,2.3-0.6,2.9-1.2c0.6-0.5,0.8-1.3,0.8-2.5V73.6c0-1.3-0.2-2.3-0.6-2.9c-0.5-0.6-1.3-1.1-2.6-1.3c-0.5-0.1-0.8-0.2-1.1-0.5
			c-0.2-0.2-0.3-0.4-0.3-0.6c0-0.2,0.1-0.4,0.4-0.5c0.2-0.1,0.5-0.2,0.9-0.2c0.8,0,1.6,0,2.3,0s1.4,0.1,2.1,0.1
			c0.6,0.1,1.3,0.1,2,0.1c0.8,0,1.5-0.1,2.2-0.1c0.7-0.1,1.4-0.1,2.1-0.2c0.7-0.1,1.6-0.1,2.5-0.1c4.1,0,7.5,0.9,10,2.6
			c2.5,1.8,3.7,4.1,3.7,7.2c0,2.2-0.5,4.2-1.3,6s-2.3,3.3-4.1,4.4c-1.9,1.1-4.1,1.7-7,1.7c-0.9,0-1.5-0.1-2-0.4
			c-0.5-0.3-0.7-0.5-0.7-0.9c0-0.2,0.1-0.4,0.4-0.5c0.2-0.2,0.4-0.2,0.6-0.2c0.3,0,0.6,0,0.9,0.1c0.3,0.1,0.8,0.1,1.3,0.1
			c1.6,0,2.9-0.8,3.7-2.5c0.9-1.7,1.3-3.9,1.3-6.7c0-3.1-0.6-5.3-1.9-6.8c-1.2-1.4-2.9-2.1-5-2.1c-1,0-1.8,0.2-2.3,0.6
			c-0.5,0.4-0.8,1.1-0.8,1.9l-0.1,24.7c0,1.2,0.3,2,0.9,2.6c0.6,0.6,1.6,1.1,3,1.3c0.5,0.1,0.8,0.2,1,0.4s0.3,0.4,0.3,0.6
			c0,0.2-0.1,0.4-0.3,0.5c-0.2,0.1-0.5,0.2-0.9,0.2c-0.8,0-1.6,0-2.5-0.1c-0.8-0.1-1.6-0.1-2.5-0.1c-0.8-0.1-1.5-0.1-2.2-0.1
			c-0.8,0-1.6,0-2.4,0.1c-0.8,0.1-1.6,0.1-2.5,0.2C308.9,102,308,102.1,307.2,102.1z"/>
		<path class="st4" d="M337.2,102.2c-0.4,0-0.8-0.1-1.1-0.2c-0.3-0.1-0.4-0.4-0.4-0.6c0-0.3,0.1-0.6,0.4-0.8
			c0.2-0.2,0.6-0.4,1.1-0.5c1-0.3,1.9-0.7,2.6-1.3c0.8-0.6,1.3-1.4,1.8-2.4c0.9-2,1.7-4,2.5-6c0.8-1.9,1.6-3.8,2.3-5.7
			c0.8-1.9,1.5-3.8,2.2-5.8c0.8-2,1.5-4,2.3-6.2c0.4-1.1,0.6-1.9,0.8-2.5c0.1-0.6,0.3-1.1,0.4-1.3c0.5-0.1,1-0.3,1.5-0.4
			c0.5-0.1,0.9-0.3,1.5-0.5c0.5-0.2,0.9-0.6,1.3-0.9c0.4-0.4,0.6-0.7,0.8-0.9c0.1-0.1,0.2-0.1,0.3-0.1c0.1,0,0.2,0.1,0.3,0.2
			c0.1,0.2,0.2,0.4,0.2,0.6s0.1,0.5,0.2,0.7c0.8,2.5,1.6,5,2.4,7.5c0.8,2.6,1.6,5,2.5,7.5c0.8,2.5,1.6,4.8,2.3,7.1
			c0.8,2.3,1.5,4.3,2.1,6.3c0.3,0.9,0.7,1.7,1.2,2.3c0.5,0.6,1,1,1.6,1.3c0.6,0.3,1.2,0.5,1.9,0.7c0.5,0.1,0.8,0.2,1.1,0.4
			c0.2,0.2,0.4,0.4,0.4,0.8c0,0.2-0.1,0.4-0.4,0.5c-0.2,0.1-0.5,0.2-0.9,0.2c-0.6,0-1.4,0-2.4-0.1c-1-0.1-1.9-0.1-3-0.1
			c-1-0.1-1.9-0.1-2.7-0.1c-0.7,0-1.5,0-2.3,0.1c-0.9,0.1-1.7,0.1-2.6,0.1c-0.9,0.1-1.6,0.1-2.2,0.1c-0.4,0-0.6-0.1-0.9-0.2
			c-0.3-0.1-0.4-0.3-0.4-0.5c0-0.3,0.1-0.5,0.4-0.7c0.3-0.2,0.6-0.4,1-0.4c1.3-0.2,2.2-0.5,2.7-1c0.6-0.5,0.8-1.1,0.6-1.9
			c-0.1-0.6-0.2-1.3-0.5-2.1c-0.2-0.8-0.4-1.7-0.6-2.6c-0.2-0.9-0.5-1.7-0.7-2.5c-0.1-0.3-0.2-0.5-0.3-0.6c-0.1-0.1-0.4-0.2-0.8-0.2
			h-9.5c-0.2,0-0.5,0.1-0.6,0.2c-0.1,0.2-0.2,0.4-0.3,0.7c-0.1,0.5-0.3,1-0.5,1.6c-0.2,0.6-0.4,1.2-0.6,1.8
			c-0.2,0.6-0.4,1.2-0.5,1.7c-0.2,0.5-0.3,1-0.4,1.3c-0.2,0.9,0,1.7,0.5,2.2c0.5,0.5,1.4,1,2.6,1.3c0.9,0.2,1.4,0.6,1.4,1.1
			c0,0.2-0.1,0.4-0.4,0.5c-0.2,0.1-0.5,0.2-1,0.2c-0.8,0-1.6,0-2.5-0.1c-0.9-0.1-1.8-0.1-2.9-0.1c-1.1,0-2.1,0.1-3.1,0.2
			C339.2,102.1,338.2,102.2,337.2,102.2z M349.7,86.9h7.3c0.5,0,0.8-0.1,0.8-0.3c0-0.1,0-0.2,0-0.3c0-0.1-0.1-0.2-0.1-0.3L354,73.9
			c-0.1-0.5-0.3-0.8-0.4-0.8s-0.2,0.2-0.4,0.7L348.9,86c-0.1,0.2-0.1,0.3-0.1,0.4c0,0.2,0.1,0.3,0.3,0.4
			C349.2,86.9,349.4,86.9,349.7,86.9z"/>
		<path class="st4" d="M394.6,102.6c-2.6,0-5.1-0.4-7.5-1.2c-2.3-0.8-4.4-2-6.3-3.6c-1.8-1.5-3.2-3.4-4.3-5.5
			c-1.1-2.2-1.6-4.6-1.6-7.2c0-2.5,0.5-4.8,1.5-7c1-2.2,2.5-4.1,4.3-5.8c1.9-1.7,4.1-3,6.7-4c2.6-0.9,5.4-1.5,8.5-1.5
			c1.2,0,2.3,0.1,3.4,0.2c1.1,0.2,2.1,0.4,3.2,0.6c1,0.2,2,0.5,3,0.9c0.4,0.1,0.7,0.4,0.9,0.6c0.2,0.2,0.4,0.6,0.4,1
			c0.1,1.1,0.2,2.1,0.3,3.2c0.1,1.1,0.1,2,0.1,3.1c0.1,0.4-0.1,0.6-0.4,0.8c-0.3,0.2-0.6,0.2-0.9,0.1c-0.3-0.1-0.5-0.4-0.7-0.8
			c-0.3-1-0.6-1.9-1-2.7c-0.4-0.9-0.9-1.6-1.6-2.2c-0.8-0.6-1.8-1.2-3-1.6c-1.2-0.4-2.7-0.6-4.3-0.6c-1.9,0-3.6,0.4-5.1,1.2
			s-2.9,1.8-4,3.2c-1.1,1.3-1.9,2.9-2.6,4.6c-0.6,1.7-0.9,3.5-0.9,5.4c0,2.2,0.3,4.4,0.8,6.4c0.5,2,1.3,3.7,2.5,5.3
			c1.1,1.5,2.5,2.7,4,3.6c1.6,0.9,3.4,1.3,5.4,1.3c2.6,0,4.7-0.6,6.3-1.7c1.6-1.1,3-2.8,4.1-5c0.3-0.6,0.6-0.8,1.2-0.8
			c0.5,0,0.8,0.3,0.8,0.9c0,0.4-0.1,0.9-0.2,1.6c-0.1,0.6-0.2,1.3-0.5,2c-0.2,0.7-0.4,1.4-0.6,2.1c-0.1,0.4-0.3,0.8-0.5,0.9
			c-0.2,0.2-0.5,0.4-0.9,0.6c-1.3,0.6-2.9,1-4.7,1.3C398.6,102.5,396.7,102.6,394.6,102.6z"/>
		<path class="st4" d="M421.6,102.1c-0.4,0-0.6-0.1-0.9-0.2c-0.3-0.1-0.4-0.3-0.4-0.5c0-0.3,0.1-0.5,0.4-0.7
			c0.2-0.2,0.6-0.3,1.1-0.4c1.3-0.3,2.3-0.7,2.9-1.2c0.6-0.5,0.9-1.3,0.9-2.5V75.4c0-1.5-0.1-2.5-0.1-3.3c-0.1-0.8-0.2-1.2-0.3-1.5
			s-0.3-0.4-0.5-0.5c-0.4-0.1-0.8-0.2-1.3-0.3c-0.5-0.1-1.1-0.1-1.5-0.1h-1.6c-1,0-2,0.2-2.9,0.7c-0.9,0.5-1.7,1.1-2.2,1.9
			c-0.1,0.2-0.4,0.5-0.6,0.9c-0.3,0.4-0.6,0.8-0.9,1.1c-0.4,0.3-0.7,0.5-1.1,0.5c-0.2,0-0.4-0.1-0.5-0.3c-0.1-0.2-0.1-0.4-0.1-0.6
			c0-0.4,0.1-0.8,0.3-1.3c0.6-1.2,1.1-2.2,1.3-3.2c0.3-0.9,0.5-1.9,0.6-3.2c0.1-0.5,0.2-0.9,0.5-1.1s0.5-0.2,0.7-0.2
			s0.5,0.2,0.8,0.6c0.3,0.5,0.6,0.8,0.8,1.1c0.3,0.3,0.9,0.5,1.7,0.7c0.8,0.2,1.5,0.2,2,0.2l19.4-0.1c1,0,1.8-0.1,2.5-0.2
			c0.6-0.2,1.2-0.4,1.6-0.5c0.5-0.3,0.9-0.6,1.3-1c0.3-0.4,0.7-0.5,1.1-0.5c0.2,0,0.3,0.1,0.4,0.3c0.1,0.2,0.1,0.4,0.1,0.7
			c0,0.2,0,0.4-0.1,0.6s-0.1,0.4-0.1,0.6c-0.1,0.6-0.3,1.2-0.4,1.8c-0.1,0.5-0.2,1-0.4,1.4c-0.1,0.5-0.1,0.9-0.1,1.5v0.9
			c0,0.5-0.1,0.9-0.2,1.3c-0.1,0.4-0.4,0.5-0.7,0.5c-0.3,0-0.5-0.2-0.7-0.5c-0.2-0.4-0.4-0.9-0.6-1.6c-0.3-1.1-0.8-1.9-1.6-2.5
			c-0.8-0.5-1.9-0.8-3.4-0.8h-3.6c-0.6,0-1.2,0.1-1.6,0.4c-0.4,0.2-0.6,0.8-0.8,1.6c-0.2,0.8-0.2,2.1-0.2,3.8v21
			c0,1.1,0.3,1.9,0.9,2.5c0.6,0.5,1.6,0.9,3,1.3c0.4,0.1,0.8,0.2,1,0.4c0.2,0.1,0.4,0.4,0.4,0.6c0,0.2-0.1,0.4-0.4,0.5
			c-0.2,0.1-0.5,0.2-0.9,0.2c-0.8,0-1.7,0-2.5-0.1c-0.8-0.1-1.7-0.1-2.5-0.1c-0.8-0.1-1.6-0.1-2.4-0.1s-1.6,0-2.4,0.1
			c-0.8,0.1-1.7,0.1-2.5,0.1C423.3,102,422.4,102.1,421.6,102.1z"/>
	</g>
</g>
<g>
	<g>
		<path class="st4" d="M236.7,149.3c-0.4,0-0.8-0.1-1-0.2c-0.2-0.1-0.4-0.3-0.4-0.5c0-0.3,0.2-0.5,0.5-0.6s0.6-0.2,1.1-0.4
			c0.8-0.2,1.6-0.7,2.2-1.4c0.6-0.7,1-1.6,1.1-2.7c0.3-2.2,0.5-4.5,0.8-7c0.3-2.5,0.5-5.1,0.8-7.6c0.2-2.6,0.4-5,0.5-7.2
			c0-0.2,0-0.5,0-0.8s0-0.6,0-0.9c-0.1-0.5-0.1-0.9-0.3-1.3c-0.2-0.4-0.4-0.6-0.8-0.9c-0.5-0.4-1-0.6-1.5-0.8
			c-0.5-0.2-1.1-0.4-1.8-0.5c-0.4-0.1-0.7-0.2-0.9-0.4c-0.2-0.2-0.4-0.4-0.4-0.7c0-0.3,0.1-0.5,0.4-0.6c0.3-0.1,0.6-0.2,1.1-0.2
			s1.1,0,1.8,0.1c0.8,0.1,1.6,0.1,2.5,0.1c0.9,0.1,1.8,0.1,2.6,0.1c0.9,0.1,1.6,0.1,2.3,0.1c0.3,0,0.5,0.1,0.8,0.3
			c0.2,0.2,0.4,0.4,0.4,0.6c0.2,0.6,0.4,1.3,0.6,1.9c0.2,0.6,0.5,1.3,0.7,2l7.9,19.3c0.1,0.2,0.2,0.3,0.4,0.3s0.3-0.1,0.4-0.2
			l8.5-18.8c0.2-1,0.5-1.9,0.6-2.7c0.2-0.8,0.3-1.4,0.5-1.9c0.1-0.5,0.4-0.7,0.7-0.7h2.2c1.3-0.1,2.7-0.2,4.2-0.3
			c1.5-0.1,2.6-0.2,3.4-0.2c0.3,0,0.5,0.1,0.8,0.1c0.3,0.1,0.4,0.3,0.4,0.5c0,0.3-0.1,0.5-0.3,0.6c-0.2,0.1-0.5,0.3-0.9,0.5
			c-0.3,0.1-0.6,0.2-1,0.4c-0.4,0.2-0.7,0.3-1,0.5c-0.8,0.3-1.3,0.7-1.6,1.2c-0.4,0.5-0.5,1.2-0.5,2.1c0.1,2.5,0.1,4.7,0.2,6.7
			c0.1,2,0.2,3.9,0.3,5.5c0.1,1.8,0.2,3.5,0.4,5.3c0.1,1.8,0.3,3.8,0.4,6c0.1,1,0.5,1.8,1.1,2.3c0.6,0.6,1.6,1,2.7,1.3
			c0.4,0.1,0.8,0.2,1.1,0.4c0.3,0.1,0.4,0.4,0.4,0.6c0,0.2-0.1,0.4-0.4,0.5c-0.2,0.1-0.5,0.2-0.9,0.2c-0.8,0-1.6,0-2.5-0.1
			c-0.9-0.1-1.8-0.1-2.6-0.1s-1.6-0.1-2.3-0.1c-0.7,0-1.4,0-2.2,0.1c-0.8,0.1-1.5,0.1-2.3,0.1c-0.8,0.1-1.6,0.1-2.4,0.1
			c-0.4,0-0.6-0.1-0.9-0.2c-0.3-0.1-0.4-0.3-0.4-0.5c0-0.3,0.1-0.5,0.4-0.7c0.2-0.2,0.6-0.3,1.1-0.4c1.2-0.2,2-0.6,2.5-1.1
			c0.5-0.5,0.7-1.3,0.6-2.5c-0.1-2.3-0.1-4.4-0.2-6.5s-0.1-4.2-0.2-6.3c-0.1-2-0.2-4.1-0.3-6.3c-0.1-0.3-0.1-0.4-0.2-0.4
			s-0.2,0.2-0.4,0.5l-10.7,24.2c-0.1,0.4-0.4,0.5-0.7,0.5c-0.4,0-0.5-0.2-0.6-0.5c-1.6-4.1-3.3-8.1-5.1-12.1c-1.8-4-3.5-8-5.3-12.1
			c-0.1-0.3-0.2-0.4-0.5-0.3c-0.2,0.1-0.3,0.2-0.4,0.6c-0.2,2-0.4,4-0.5,6.1c-0.1,2.1-0.2,4.1-0.2,6.3c-0.1,2-0.1,4.1-0.1,6.1
			c0,0.9,0.3,1.8,0.9,2.4c0.6,0.6,1.6,1.2,2.8,1.5c0.4,0.1,0.8,0.2,1.1,0.4c0.3,0.2,0.5,0.4,0.5,0.6c0,0.2-0.1,0.4-0.4,0.5
			c-0.3,0.1-0.6,0.2-0.9,0.2c-0.9,0-1.7,0-2.2-0.1c-0.5-0.1-0.9-0.1-1.3-0.1c-0.4-0.1-1-0.1-1.7-0.1c-0.8,0-1.4,0-2.1,0.1
			c-0.6,0.1-1.2,0.1-1.8,0.1C237.6,149.3,237.1,149.3,236.7,149.3z"/>
		<path class="st4" d="M284.4,149.3c-0.3,0-0.6-0.1-0.8-0.2c-0.2-0.1-0.4-0.3-0.4-0.5c0-0.5,0.4-0.9,1.3-1.1
			c1.3-0.3,2.3-0.6,2.9-1.2c0.6-0.5,0.9-1.3,0.9-2.4v-23.9c0-1.2-0.2-2-0.8-2.5c-0.5-0.5-1.4-0.9-2.8-1.2c-0.9-0.2-1.3-0.5-1.3-1.1
			c0-0.2,0.1-0.4,0.4-0.5c0.2-0.1,0.5-0.2,0.8-0.2c0.8,0,1.6,0,2.5,0.1s1.6,0.1,2.3,0.1c0.8,0.1,1.5,0.1,2.3,0.1
			c0.8,0,1.5,0,2.2-0.1c0.8-0.1,1.5-0.1,2.3-0.1s1.6-0.1,2.5-0.1c0.4,0,0.6,0.1,0.8,0.2c0.2,0.1,0.3,0.3,0.3,0.5
			c0,0.3-0.1,0.5-0.4,0.6c-0.2,0.2-0.5,0.3-1,0.4c-1.4,0.4-2.3,0.8-2.9,1.3c-0.5,0.5-0.8,1.3-0.8,2.4v23.8c0,1.1,0.3,1.9,0.9,2.4
			c0.6,0.5,1.5,0.9,2.9,1.3c0.5,0.1,0.8,0.2,1.1,0.4s0.4,0.4,0.4,0.6c0,0.2-0.1,0.4-0.3,0.5c-0.2,0.1-0.5,0.2-0.8,0.2
			c-0.8,0-1.7,0-2.5-0.1c-0.8-0.1-1.6-0.1-2.5-0.1c-0.8-0.1-1.6-0.1-2.3-0.1c-0.8,0-1.6,0-2.3,0.1c-0.8,0.1-1.6,0.1-2.5,0.1
			C286.1,149.3,285.2,149.3,284.4,149.3z"/>
		<path class="st4" d="M336.6,150.1c-0.4,0-1.1-0.3-2.1-0.8c-1-0.5-2-1.5-3-2.7c-0.6-0.6-1.3-1.5-2.2-2.5c-0.9-0.9-1.8-2-2.9-3.2
			c-1.1-1.2-2.1-2.3-3.2-3.6c-1.1-1.3-2.2-2.5-3.3-3.8c-1.1-1.3-2.2-2.5-3.2-3.6c-1.1-1.2-2-2.2-2.9-3.2s-1.6-1.8-2.2-2.5
			c-0.1-0.2-0.3-0.4-0.5-0.5c-0.2-0.1-0.3-0.2-0.4-0.2s-0.2,0.1-0.3,0.4c-0.1,0.2-0.1,0.5-0.1,0.7c0,1.6,0,3.5,0,5.7
			c0,2.2,0,4.4,0,6.7s0,4.4,0,6.3c0,1.1,0.3,2,0.9,2.7c0.6,0.7,1.6,1.2,3,1.5c0.4,0.1,0.8,0.2,1.1,0.4s0.5,0.4,0.5,0.6
			c0,0.2-0.1,0.4-0.4,0.5c-0.3,0.1-0.6,0.2-0.9,0.2c-0.9,0-1.7,0-2.3-0.1c-0.6-0.1-1.1-0.1-1.5-0.1c-0.5-0.1-1.1-0.1-1.8-0.1
			c-0.8,0-1.4,0-2,0.1c-0.6,0.1-1.1,0.1-1.6,0.1c-0.5,0.1-0.9,0.1-1.3,0.1c-0.4,0-0.6-0.1-0.9-0.2c-0.3-0.1-0.4-0.3-0.4-0.5
			c0-0.3,0.1-0.5,0.4-0.6c0.3-0.2,0.6-0.3,1.1-0.5c0.9-0.3,1.6-0.8,2-1.6c0.4-0.8,0.7-1.6,0.8-2.7c0.1-1.3,0.3-3.1,0.4-5.3
			s0.3-4.6,0.4-7.3c0.1-2.7,0.2-5.5,0.2-8.4c0-1.8-0.5-3.2-1.4-4c-0.9-0.8-2.1-1.5-3.5-1.9c-0.2-0.1-0.6-0.2-0.9-0.4
			c-0.4-0.2-0.6-0.5-0.6-0.8s0.1-0.5,0.4-0.6c0.3-0.1,0.6-0.2,0.9-0.2c0.8,0,1.5,0,2.2,0.1c0.8,0.1,1.5,0.1,2.2,0.1s1.5,0.1,2.3,0.1
			c0.8,0.1,1.7,0.1,2.6,0.1c0.3,0,0.5,0.1,0.7,0.2c0.2,0.1,0.3,0.3,0.5,0.5c0.6,0.6,1.3,1.5,2.2,2.5c0.9,1,1.8,2.1,2.9,3.3
			c1.1,1.2,2.1,2.5,3.3,3.8c1.1,1.3,2.3,2.7,3.4,4c1.1,1.3,2.2,2.6,3.3,3.8c1.1,1.2,2,2.3,2.9,3.3s1.6,1.8,2.1,2.5
			c0.1,0.1,0.3,0.3,0.5,0.5c0.2,0.2,0.4,0.3,0.5,0.3c0.3,0,0.4-0.3,0.5-0.9c0-0.9,0-2.1,0-3.5s0-3,0-4.7s0-3.5,0-5.3
			s-0.1-3.6-0.1-5.3c-0.1-0.9-0.4-1.6-1.1-2.1c-0.7-0.5-1.5-0.9-2.6-1.1c-0.4-0.1-0.8-0.2-1.2-0.4c-0.4-0.2-0.5-0.4-0.5-0.7
			c0-0.2,0.2-0.4,0.5-0.5c0.4-0.1,0.7-0.2,1.1-0.2c0.7,0,1.3,0,1.8,0c0.5,0,0.9,0,1.3,0c0.4,0,0.9,0,1.3,0c0.8,0,1.4,0,1.9,0
			c0.5,0,1.1-0.1,1.6-0.1c0.6-0.1,1.3-0.1,2.3-0.1c0.4,0,0.8,0.1,1.1,0.2c0.3,0.1,0.4,0.3,0.4,0.5c0,0.5-0.5,0.9-1.5,1.1
			c-1.2,0.2-2.1,0.6-2.6,1c-0.5,0.4-0.8,1.1-0.8,2.1c0,0.9,0,2,0,3.4c0,1.3-0.1,2.9-0.1,4.5c-0.1,1.6-0.1,3.3-0.1,5
			c-0.1,1.7-0.1,3.3-0.1,5c0,1.6,0,3.1,0,4.4c0,0.8,0.1,1.7,0.1,2.6c0.1,0.9,0.2,1.6,0.2,2.3c0.1,0.7,0.1,1.2,0.1,1.5
			c0,0.8-0.1,1.3-0.4,1.6C337.3,149.9,337,150.1,336.6,150.1z"/>
		<path class="st4" d="M345.4,149.3c-0.3,0-0.6-0.1-0.8-0.2c-0.2-0.1-0.4-0.3-0.4-0.5c0-0.5,0.4-0.9,1.3-1.1
			c1.3-0.3,2.3-0.6,2.9-1.2c0.6-0.5,0.9-1.3,0.9-2.4v-23.9c0-1.2-0.2-2-0.8-2.5c-0.5-0.5-1.4-0.9-2.8-1.2c-0.9-0.2-1.3-0.5-1.3-1.1
			c0-0.2,0.1-0.4,0.4-0.5c0.2-0.1,0.5-0.2,0.8-0.2c0.8,0,1.6,0,2.5,0.1c0.8,0.1,1.6,0.1,2.3,0.1c0.8,0.1,1.5,0.1,2.3,0.1
			c0.8,0,1.5,0,2.2-0.1c0.8-0.1,1.5-0.1,2.3-0.1s1.6-0.1,2.5-0.1c0.4,0,0.6,0.1,0.8,0.2c0.2,0.1,0.3,0.3,0.3,0.5
			c0,0.3-0.1,0.5-0.4,0.6c-0.2,0.2-0.5,0.3-1,0.4c-1.4,0.4-2.3,0.8-2.9,1.3c-0.5,0.5-0.8,1.3-0.8,2.4v23.8c0,1.1,0.3,1.9,0.9,2.4
			c0.6,0.5,1.5,0.9,2.9,1.3c0.5,0.1,0.8,0.2,1.1,0.4c0.2,0.1,0.4,0.4,0.4,0.6c0,0.2-0.1,0.4-0.3,0.5c-0.2,0.1-0.5,0.2-0.8,0.2
			c-0.8,0-1.7,0-2.5-0.1c-0.8-0.1-1.6-0.1-2.5-0.1s-1.6-0.1-2.3-0.1c-0.8,0-1.6,0-2.3,0.1c-0.8,0.1-1.6,0.1-2.5,0.1
			C347.1,149.3,346.2,149.3,345.4,149.3z"/>
		<path class="st4" d="M373.2,149.9c-1.5,0-2.9-0.2-4.3-0.6c-1.3-0.4-2.6-0.9-3.7-1.8c-0.2-0.2-0.4-0.4-0.6-0.5
			c-0.2-0.2-0.3-0.4-0.4-0.6c-0.3-0.9-0.5-1.9-0.6-3.2c-0.1-1.3-0.1-2.5-0.1-3.7c0-0.2,0.1-0.4,0.3-0.5c0.2-0.1,0.4-0.2,0.7-0.2
			c0.3,0,0.5,0.1,0.6,0.1c0.2,0.1,0.3,0.2,0.4,0.5c0.8,2.6,1.9,4.7,3.4,6.1c1.5,1.5,3.2,2.2,5,2.2c1.2,0,2.2-0.3,2.9-0.8
			c0.8-0.5,1.4-1.2,1.9-2c0.4-0.8,0.6-1.8,0.6-2.7c0-1.2-0.2-2.2-0.6-3c-0.5-0.8-1.1-1.5-2-2.2c-0.9-0.6-2-1.3-3.3-2.1
			c-1.5-0.8-2.9-1.8-4.2-2.6c-1.3-0.9-2.5-2-3.4-3.3c-0.9-1.3-1.3-2.9-1.3-4.7c0-2,0.5-3.7,1.5-5.2c1-1.5,2.4-2.6,4.2-3.5
			c1.8-0.8,3.9-1.3,6.2-1.3c1.3,0,2.5,0.1,3.6,0.4c1.1,0.3,2,0.6,2.7,0.8c0.4,0.1,0.7,0.3,0.9,0.5c0.2,0.2,0.4,0.5,0.5,1
			c0.2,0.8,0.4,1.6,0.5,2.6c0.2,1,0.2,2.1,0.2,3.2c0,0.4-0.3,0.6-0.9,0.6c-0.3,0-0.6-0.1-0.8-0.2c-0.3-0.1-0.5-0.4-0.5-0.6
			c-0.6-2-1.5-3.6-2.6-4.6s-2.5-1.6-4.1-1.6c-1.1,0-2,0.2-2.8,0.5c-0.8,0.4-1.4,0.9-1.9,1.7c-0.5,0.8-0.7,1.8-0.7,2.9
			c0,0.9,0.3,1.8,0.9,2.5c0.6,0.8,1.5,1.5,2.6,2.3c1.1,0.8,2.3,1.5,3.7,2.4c1.7,1,3.1,2,4.2,3c1.1,1,2,2.1,2.6,3.3
			c0.6,1.2,0.9,2.6,0.9,4.3c0,2.3-0.5,4.3-1.5,5.8c-1,1.6-2.5,2.7-4.3,3.5C377.8,149.5,375.7,149.9,373.2,149.9z"/>
		<path class="st4" d="M398.4,149.3c-0.4,0-0.6-0.1-0.9-0.2c-0.3-0.1-0.4-0.3-0.4-0.5c0-0.3,0.1-0.5,0.4-0.7
			c0.2-0.2,0.6-0.3,1.1-0.4c1.3-0.3,2.3-0.7,2.9-1.2c0.6-0.5,0.9-1.3,0.9-2.5v-21.3c0-1.5-0.1-2.5-0.1-3.3c-0.1-0.8-0.2-1.2-0.3-1.5
			s-0.3-0.4-0.5-0.5c-0.4-0.1-0.8-0.2-1.3-0.3c-0.5-0.1-1.1-0.1-1.5-0.1H397c-1,0-2,0.2-2.9,0.7c-0.9,0.5-1.7,1.1-2.2,1.9
			c-0.1,0.2-0.4,0.5-0.6,0.9c-0.3,0.4-0.6,0.8-0.9,1.1c-0.4,0.3-0.7,0.5-1.1,0.5c-0.2,0-0.4-0.1-0.5-0.3c-0.1-0.2-0.1-0.4-0.1-0.6
			c0-0.4,0.1-0.8,0.3-1.3c0.6-1.2,1.1-2.2,1.3-3.2c0.3-0.9,0.5-1.9,0.6-3.2c0.1-0.5,0.2-0.9,0.5-1.1c0.2-0.2,0.5-0.2,0.7-0.2
			s0.5,0.2,0.8,0.6c0.3,0.5,0.6,0.8,0.8,1.1c0.3,0.3,0.9,0.5,1.7,0.7c0.8,0.2,1.5,0.2,2,0.2l19.4-0.1c1,0,1.8-0.1,2.5-0.2
			c0.6-0.2,1.2-0.4,1.6-0.5c0.5-0.3,0.9-0.6,1.3-1c0.3-0.4,0.7-0.5,1.1-0.5c0.2,0,0.3,0.1,0.4,0.3c0.1,0.2,0.1,0.4,0.1,0.7
			c0,0.2,0,0.4-0.1,0.6s-0.1,0.4-0.1,0.6c-0.1,0.6-0.3,1.2-0.4,1.8c-0.1,0.5-0.2,1-0.4,1.4c-0.1,0.5-0.1,0.9-0.1,1.5v0.9
			c0,0.5-0.1,0.9-0.2,1.3c-0.1,0.4-0.4,0.5-0.7,0.5c-0.3,0-0.5-0.2-0.7-0.5c-0.2-0.4-0.4-0.9-0.6-1.6c-0.3-1.1-0.8-1.9-1.6-2.5
			c-0.8-0.5-1.9-0.8-3.4-0.8h-3.6c-0.6,0-1.2,0.1-1.6,0.4c-0.4,0.2-0.6,0.8-0.8,1.6c-0.2,0.8-0.2,2.1-0.2,3.8v21
			c0,1.1,0.3,1.9,0.9,2.5c0.6,0.5,1.6,0.9,3,1.3c0.4,0.1,0.8,0.2,1,0.4s0.4,0.4,0.4,0.6c0,0.2-0.1,0.4-0.4,0.5
			c-0.2,0.1-0.5,0.2-0.9,0.2c-0.8,0-1.7,0-2.5-0.1c-0.8-0.1-1.7-0.1-2.5-0.1c-0.8-0.1-1.6-0.1-2.4-0.1s-1.6,0-2.4,0.1
			c-0.8,0.1-1.7,0.1-2.5,0.1C400.1,149.3,399.2,149.3,398.4,149.3z"/>
		<path class="st4" d="M457.3,150.2c-1.5,0-2.8-0.2-4-0.5c-1.1-0.4-2.1-0.8-2.9-1.5c-0.8-0.6-1.5-1.3-2.2-2.2
			c-0.8-1.1-1.5-2.1-2.3-3.1c-0.8-1-1.5-2.1-2.2-3.3c-0.8-1.2-1.6-2.6-2.5-4.3c-0.5-0.8-1.1-1.4-1.8-1.8c-0.5-0.2-0.9-0.4-1.4-0.5
			c-0.5-0.1-0.9-0.2-1.2-0.2c-0.2-0.1-0.4,0.1-0.5,0.2c-0.1,0.2-0.2,0.5-0.2,0.8v9.8c0,1.1,0.3,1.9,0.9,2.5c0.6,0.6,1.6,1.1,3,1.3
			c0.5,0.1,0.8,0.2,1,0.4c0.2,0.2,0.3,0.4,0.3,0.6c0,0.2-0.1,0.4-0.3,0.5c-0.2,0.1-0.5,0.2-0.9,0.2c-0.8,0-1.6,0-2.5-0.1
			s-1.6-0.1-2.5-0.1c-0.8-0.1-1.5-0.1-2.2-0.1c-0.8,0-1.6,0-2.4,0.1c-0.8,0.1-1.6,0.1-2.5,0.2c-0.8,0.1-1.7,0.1-2.5,0.1
			c-0.3,0-0.6-0.1-0.8-0.2c-0.2-0.1-0.4-0.3-0.4-0.5c0-0.5,0.5-0.9,1.3-1.1c1.3-0.3,2.3-0.6,2.9-1.2c0.6-0.5,0.8-1.3,0.8-2.5v-23.3
			c0-1-0.1-1.8-0.2-2.3c-0.2-0.5-0.5-0.9-0.9-1.2c-0.5-0.3-1.2-0.5-2-0.6c-0.5-0.1-0.8-0.2-1.1-0.4c-0.2-0.2-0.3-0.4-0.3-0.6
			c0-0.2,0.1-0.4,0.4-0.5c0.2-0.1,0.5-0.2,0.9-0.2c1.1,0,1.9,0,2.5,0.1c0.6,0.1,1.2,0.1,1.8,0.1c0.6,0.1,1.3,0.1,2.1,0.1
			c0.8,0,1.5-0.1,2-0.1c0.6-0.1,1.3-0.1,2-0.2c0.8-0.1,1.7-0.1,2.9-0.1c4,0,7.1,0.7,9.2,2.1c2.2,1.4,3.2,3.6,3.2,6.4
			c0,1.6-0.4,2.9-1,4c-0.6,1.1-1.5,2-2.5,2.7c-1,0.7-2,1.2-3.1,1.6c-0.1,0.1-0.2,0.1-0.2,0.3c0,0.1,0.1,0.3,0.2,0.4
			c1.1,1.6,2.1,3.2,3.1,4.6s2,2.8,3.2,4.1c1.1,1.3,2.3,2.6,3.6,3.7c1.1,1,2.2,1.6,3.3,1.8c1.1,0.2,2.3,0.3,3.6,0.3
			c0.5,0,0.8,0.3,0.8,0.8c0,0.7-0.3,1.2-0.8,1.6c-0.5,0.4-1.2,0.7-2.1,0.9C459.2,150.1,458.3,150.2,457.3,150.2z M438.6,131.3
			c1.5,0,2.6-0.4,3.6-1c0.9-0.6,1.7-1.5,2.2-2.6c0.5-1.1,0.8-2.3,0.8-3.6c0-1.6-0.2-2.9-0.6-4c-0.4-1.1-1.1-2-2-2.6
			c-0.9-0.6-2.2-0.9-3.8-0.9c-0.9,0-1.5,0.4-1.9,1c-0.4,0.6-0.5,1.9-0.5,3.9c-0.1,0.8-0.1,1.9-0.1,3.2c0,1.3,0,2.9,0,4.7
			c0,0.8,0.2,1.3,0.6,1.6C437.3,131.2,437.9,131.3,438.6,131.3z"/>
		<path class="st4" d="M472.6,149.4c-0.5,0-0.8-0.1-1.1-0.2c-0.3-0.1-0.4-0.4-0.4-0.6c0-0.3,0.2-0.5,0.5-0.6
			c0.3-0.2,0.7-0.3,1.1-0.4c1.3-0.2,2.3-0.7,2.9-1.4c0.6-0.7,0.9-1.6,0.9-2.8v-7.5c0-1-0.2-1.9-0.5-2.7c-0.4-0.8-0.7-1.5-1-2.1
			l-6.5-10.3c-0.3-0.5-0.6-1-1.1-1.6c-0.5-0.6-0.9-1.1-1.5-1.6c-0.5-0.5-1.1-0.8-1.8-1c-0.4-0.1-0.8-0.3-1.1-0.5s-0.4-0.4-0.4-0.6
			c0-0.2,0.1-0.4,0.4-0.5c0.2-0.1,0.5-0.2,0.9-0.2c1.3,0,2.5,0.1,3.7,0.1c1.2,0.1,2.6,0.1,4,0.1c1,0,2-0.1,2.9-0.1
			c0.9-0.1,1.9-0.1,2.9-0.1c0.4,0,0.7,0.1,1,0.2c0.3,0.1,0.5,0.3,0.5,0.5c0,0.3-0.2,0.5-0.5,0.7c-0.3,0.2-0.7,0.3-1.1,0.4
			c-0.8,0.2-1.4,0.4-1.8,0.6c-0.4,0.2-0.6,0.6-0.6,1.1c0,0.5,0.2,1.2,0.6,1.9l5.2,9.2c0.5,0.9,0.8,1.3,1.2,1.3
			c0.2,0,0.4-0.1,0.5-0.3c0.2-0.2,0.4-0.5,0.7-1c0.8-1.3,1.6-2.7,2.3-4s1.5-2.8,2.3-4.4c0.2-0.4,0.4-0.8,0.5-1.2
			c0.1-0.4,0.2-0.8,0.2-1.1c0-0.7-0.3-1.2-0.8-1.5c-0.6-0.3-1.2-0.5-1.8-0.5c-0.4-0.1-0.7-0.2-1.1-0.4c-0.4-0.2-0.6-0.5-0.6-0.8
			c0-0.2,0.2-0.4,0.5-0.5c0.3-0.1,0.6-0.2,1.1-0.2c0.9,0,1.8,0.1,2.5,0.1c0.7,0.1,1.5,0.1,2.4,0.1c1,0,1.9-0.1,2.8-0.2
			c0.9-0.1,1.8-0.2,2.6-0.2c0.4,0,0.8,0.1,1.1,0.2c0.3,0.1,0.5,0.3,0.5,0.6s-0.2,0.5-0.6,0.7c-0.4,0.2-0.9,0.3-1.3,0.5
			c-1,0.3-1.8,0.8-2.5,1.4c-0.7,0.6-1.4,1.5-2,2.6c-0.6,1-1.2,1.9-1.7,2.7c-0.5,0.8-1.1,1.6-1.5,2.4c-0.5,0.8-0.9,1.5-1.5,2.3
			c-0.5,0.8-1,1.6-1.6,2.6c-0.4,0.6-0.6,1.2-0.8,1.6c-0.2,0.5-0.4,1-0.5,1.5s-0.2,1.2-0.2,1.9v7.8c0,1.3,0.3,2.3,0.9,2.9
			c0.6,0.6,1.6,1.1,2.9,1.4c0.5,0.1,0.9,0.2,1.2,0.4c0.3,0.1,0.5,0.4,0.5,0.7c0,0.2-0.1,0.4-0.4,0.5c-0.3,0.1-0.6,0.2-1.1,0.2
			c-0.8,0-1.7-0.1-2.5-0.1c-0.8-0.1-1.6-0.1-2.5-0.2c-0.8-0.1-1.6-0.1-2.3-0.1c-0.8,0-1.6,0-2.4,0.1c-0.8,0.1-1.6,0.1-2.5,0.2
			C474.3,149.4,473.4,149.4,472.6,149.4z"/>
	</g>
</g>
</svg>
