<?xml version="1.0" encoding="utf-8"?>
<!-- Generator: Adobe Illustrator 24.3.0, SVG Export Plug-In . SVG Version: 6.00 Build 0)  -->
<svg version="1.1" id="Layer_1" xmlns="http://www.w3.org/2000/svg" xmlns:xlink="http://www.w3.org/1999/xlink" x="0px" y="0px"
	 viewBox="0 0 512 512" style="enable-background:new 0 0 512 512;" xml:space="preserve">
<style type="text/css">
	.st0{fill:#343333;}
</style>
<path class="st0" d="M256,47c68.1,0,76.1,0.3,103,1.5c69.1,3.1,101.4,35.9,104.5,104.5c1.2,26.9,1.5,34.9,1.5,103
	c0,68.1-0.3,76.1-1.5,103c-3.2,68.5-35.4,101.4-104.5,104.5c-26.9,1.2-34.9,1.5-103,1.5c-68.1,0-76.1-0.3-103-1.5
	C83.7,460.4,51.6,427.5,48.5,359c-1.2-26.9-1.5-34.9-1.5-103c0-68.1,0.3-76.1,1.5-103C51.6,84.4,83.8,51.6,153,48.5
	C179.9,47.3,187.9,47,256,47z M256,1.1c-69.2,0-77.9,0.3-105.1,1.5C58.3,6.8,6.9,58.2,2.6,150.9C1.4,178.1,1.1,186.8,1.1,256
	s0.3,77.9,1.5,105.1c4.2,92.6,55.6,144,148.3,148.3c27.2,1.2,35.9,1.5,105.1,1.5s77.9-0.3,105.1-1.5
	c92.5-4.2,144.1-55.6,148.3-148.3c1.3-27.2,1.6-35.9,1.6-105.1s-0.3-77.9-1.5-105.1c-4.2-92.5-55.6-144-148.3-148.3
	C333.9,1.4,325.2,1.1,256,1.1z M256,125.1c-72.3,0-130.9,58.6-130.9,130.9S183.7,386.9,256,386.9S386.9,328.3,386.9,256
	C386.9,183.7,328.3,125.1,256,125.1z M256,341c-46.9,0-85-38-85-85c0-46.9,38.1-85,85-85s85,38.1,85,85C341,303,302.9,341,256,341z
	 M392.1,89.3c-16.9,0-30.6,13.7-30.6,30.6s13.7,30.6,30.6,30.6c16.9,0,30.6-13.7,30.6-30.6S409,89.3,392.1,89.3z"/>
</svg>
